<svg width="288" height="72" viewBox="0 0 288 72" fill="none" xmlns="http://www.w3.org/2000/svg" role="img" aria-label="Docks del Puerto">

  <path d="M36,6 L76,6 Q82,6 82,12 L82,60 L30,60 L30,12 Q30,6 36,6 Z" fill="#D94F3B"></path>
  <rect x="47.5" y="30" width="17" height="30" fill="#0F172A"></rect>

  <path d="M95,6 L135,6 Q141,6 141,12 L141,60 L89,60 L89,12 Q89,6 95,6 Z" fill="#2E8A48"></path>
  <rect x="106.5" y="30" width="17" height="30" fill="#0F172A"></rect>

  <path d="M154,6 L194,6 Q200,6 200,12 L200,60 L148,60 L148,12 Q148,6 154,6 Z" fill="#E8B830"></path>
  <rect x="165.5" y="30" width="17" height="30" fill="#0F172A"></rect>

  <path d="M213,6 L253,6 Q259,6 259,12 L259,60 L207,60 L207,12 Q207,6 213,6 Z" fill="#1E72B8"></path>
  <rect x="224.5" y="30" width="17" height="30" fill="#0F172A"></rect>

  <line x1="30" y1="62" x2="259" y2="62" stroke="rgba(255,255,255,0.20)" stroke-width="1"></line>
</svg>
